<?xml version="1.0" encoding="UTF-8" standalone="no"?>
<!DOCTYPE svg PUBLIC "-//W3C//DTD SVG 1.1//EN" "http://www.w3.org/Graphics/SVG/1.1/DTD/svg11.dtd">
<svg width="100%" height="100%" viewBox="0 0 4258 4121" version="1.1" xmlns="http://www.w3.org/2000/svg" xmlns:xlink="http://www.w3.org/1999/xlink" xml:space="preserve" xmlns:serif="http://www.serif.com/" style="fill-rule:evenodd;clip-rule:evenodd;stroke-linecap:round;stroke-linejoin:round;stroke-miterlimit:1.5;">
    <g id="roads">
    </g>
    <g id="Artboard1" transform="matrix(1,0,0,1,-3806.26,-1372.56)">
        <rect x="3806.26" y="1372.56" width="4257.5" height="4120.16" style="fill:none;"/>
        <clipPath id="_clip1">
            <rect x="3806.26" y="1372.56" width="4257.5" height="4120.16"/>
        </clipPath>
        <g clip-path="url(#_clip1)">
            <g transform="matrix(1,0,0,1,268.853,351.593)">
                <rect x="-523.867" y="-371.164" width="14220.7" height="10929.4" style="fill:white;stroke:black;stroke-width:1px;stroke-dasharray:1,1;"/>
            </g>
            <g id="forest" transform="matrix(1,0,0,1,4226.26,1484.56)">
                <g id="Shimmerglen-Forest" serif:id="Shimmerglen Forest" transform="matrix(1,0,0,1,-4226,-1482)">
                    <path d="M4927.06,5469.88C5049.41,5504.49 5423.66,5504.99 5599.14,5477.44C5740.27,5455.27 5868.58,5324.82 5973.07,5289.11C6052.38,5262 6201.57,5322.52 6250.84,5254.72C6308.82,5174.91 6280.29,4954.65 6320.94,4810.28C6370.54,4634.15 6442.63,4251.88 6548.45,4197.87C6654.26,4143.86 6861.49,4434.64 6955.84,4486.22C7002.68,4511.83 7080.99,4548.88 7114.57,4507.39C7161.3,4449.63 7273.95,4092.94 7319.59,3934.65C7354.97,3811.92 7404.46,3535.97 7402.92,3388.38C7401.69,3271.16 7375.18,3207.88 7310.33,3049.1C7237.8,2871.53 7061,2634.43 6971.71,2482.98C6904.92,2369.68 6826.56,2261.41 6787.86,2137.76C6749.83,2016.25 6732.08,1834.31 6654.26,1773.35C6576.44,1712.4 6281.67,1763.62 6167.51,1781.29C6010.77,1805.54 5939.56,1798.7 5835.51,1863.3C5759.88,1910.24 5648.12,2086.39 5543.19,2168.84C5441.83,2248.48 5299.37,2279.51 5205.9,2357.99C5114.09,2435.07 5037.03,2563.67 4982.36,2639.72C4942.77,2694.8 4897.62,2749.43 4877.87,2814.32C4839.95,2938.88 4799.39,3166.38 4756.18,3339.44C4735.61,3421.81 4662.15,3528.59 4633.93,3632.6C4603.27,3745.56 4618.62,3852.65 4618.62,3852.65C4618.62,3852.65 4677.27,4111.02 4766.76,4199.19C4856.48,4287.6 4997.57,4340.73 5056.43,4430.67C5114.34,4519.15 4948.02,4702.08 4918.87,4831.45C4886.69,4974.3 4863.32,5287.78 4863.32,5287.78C4863.32,5287.78 4870.57,5453.9 4927.06,5469.88Z" style="fill:rgb(0,255,1);fill-opacity:0.52;"/>
                    <clipPath id="_clip2">
                        <path d="M4927.06,5469.88C5049.41,5504.49 5423.66,5504.99 5599.14,5477.44C5740.27,5455.27 5868.58,5324.82 5973.07,5289.11C6052.38,5262 6201.57,5322.52 6250.84,5254.72C6308.82,5174.91 6280.29,4954.65 6320.94,4810.28C6370.54,4634.15 6442.63,4251.88 6548.45,4197.87C6654.26,4143.86 6861.49,4434.64 6955.84,4486.22C7002.68,4511.83 7080.99,4548.88 7114.57,4507.39C7161.3,4449.63 7273.95,4092.94 7319.59,3934.65C7354.97,3811.92 7404.46,3535.97 7402.92,3388.38C7401.69,3271.16 7375.18,3207.88 7310.33,3049.1C7237.8,2871.53 7061,2634.43 6971.71,2482.98C6904.92,2369.68 6826.56,2261.41 6787.86,2137.76C6749.83,2016.25 6732.08,1834.31 6654.26,1773.35C6576.44,1712.4 6281.67,1763.62 6167.51,1781.29C6010.77,1805.54 5939.56,1798.7 5835.51,1863.3C5759.88,1910.24 5648.12,2086.39 5543.19,2168.84C5441.83,2248.48 5299.37,2279.51 5205.9,2357.99C5114.09,2435.07 5037.03,2563.67 4982.36,2639.72C4942.77,2694.8 4897.62,2749.43 4877.87,2814.32C4839.95,2938.88 4799.39,3166.38 4756.18,3339.44C4735.61,3421.81 4662.15,3528.59 4633.93,3632.6C4603.27,3745.56 4618.62,3852.65 4618.62,3852.65C4618.62,3852.65 4677.27,4111.02 4766.76,4199.19C4856.48,4287.6 4997.57,4340.73 5056.43,4430.67C5114.34,4519.15 4948.02,4702.08 4918.87,4831.45C4886.69,4974.3 4863.32,5287.78 4863.32,5287.78C4863.32,5287.78 4870.57,5453.9 4927.06,5469.88Z"/>
                    </clipPath>
                    <g clip-path="url(#_clip2)">
                        <g transform="matrix(10,0,0,10,185.338,-1577.81)">
                            <text x="534.778px" y="397.366px" style="font-family:'LucidaBlackletter', 'Lucida Blackletter', cursive;font-size:15px;">Shimmerglen</text>
                            <g transform="matrix(15,0,0,15,596.957,412.366)">
                            </g>
                            <text x="556.395px" y="412.366px" style="font-family:'LucidaBlackletter', 'Lucida Blackletter', cursive;font-size:15px;">Forest</text>
                        </g>
                    </g>
                    <path d="M4927.06,5469.88C5049.41,5504.49 5423.66,5504.99 5599.14,5477.44C5740.27,5455.27 5868.58,5324.82 5973.07,5289.11C6052.38,5262 6201.57,5322.52 6250.84,5254.72C6308.82,5174.91 6280.29,4954.65 6320.94,4810.28C6370.54,4634.15 6442.63,4251.88 6548.45,4197.87C6654.26,4143.86 6861.49,4434.64 6955.84,4486.22C7002.68,4511.83 7080.99,4548.88 7114.57,4507.39C7161.3,4449.63 7273.95,4092.94 7319.59,3934.65C7354.97,3811.92 7404.46,3535.97 7402.92,3388.38C7401.69,3271.16 7375.18,3207.88 7310.33,3049.1C7237.8,2871.53 7061,2634.43 6971.71,2482.98C6904.92,2369.68 6826.56,2261.41 6787.86,2137.76C6749.83,2016.25 6732.08,1834.31 6654.26,1773.35C6576.44,1712.4 6281.67,1763.62 6167.51,1781.29C6010.77,1805.54 5939.56,1798.7 5835.51,1863.3C5759.88,1910.24 5648.12,2086.39 5543.19,2168.84C5441.83,2248.48 5299.37,2279.51 5205.9,2357.99C5114.09,2435.07 5037.03,2563.67 4982.36,2639.72C4942.77,2694.8 4897.62,2749.43 4877.87,2814.32C4839.95,2938.88 4799.39,3166.38 4756.18,3339.44C4735.61,3421.81 4662.15,3528.59 4633.93,3632.6C4603.27,3745.56 4618.62,3852.65 4618.62,3852.65C4618.62,3852.65 4677.27,4111.02 4766.76,4199.19C4856.48,4287.6 4997.57,4340.73 5056.43,4430.67C5114.34,4519.15 4948.02,4702.08 4918.87,4831.45C4886.69,4974.3 4863.32,5287.78 4863.32,5287.78C4863.32,5287.78 4870.57,5453.9 4927.06,5469.88Z" style="fill:none;stroke:rgb(0,255,2);stroke-width:7.15px;"/>
                </g>
                <g id="The-Oaken-Woods" serif:id="The Oaken Woods" transform="matrix(1,0,0,1,-4226,-1484.82)">
                    <path d="M5102.99,2828.62C5148.06,2829.72 5197.22,2817.5 5236.4,2835.37C5323.57,2875.12 5390.62,2967.69 5460.65,3006.4C5543.96,3052.45 5657.61,3067.04 5733.66,3122.8C5816.12,3183.26 5911.66,3302.26 5898.73,3386.28C5884.98,3475.69 5759.04,3613.34 5651.12,3659.28C5550.09,3702.29 5397.62,3714.5 5282.88,3689.97C5229.56,3678.58 5138.08,3681.34 5081.95,3652.88C5013.88,3618.38 4903.48,3524.52 4878.66,3464.58C4840.92,3373.43 4859.54,3308.18 4865.96,3222.26C4871.77,3144.52 4879.36,3057.19 4918.87,2991.58C4958.38,2925.98 5021.06,2826.64 5102.99,2828.62Z" style="fill:rgb(11,176,12);stroke:rgb(0,159,1);stroke-width:7.65px;"/>
                </g>
                <g transform="matrix(10,0,0,10,-4613.54,-2111.9)">
                    <g transform="matrix(10,0,0,10,617.971,397.366)">
                    </g>
                    <text x="534.778px" y="397.366px" style="font-family:'ArialMT', 'Arial', sans-serif;font-size:10px;">The Oaken W<tspan x="596.287px 601.848px " y="397.366px 397.366px ">oo</tspan>ds</text>
                </g>
            </g>
            <g id="mountains" transform="matrix(1,0,0,1,4226.26,1484.56)">
                <g transform="matrix(10,0,0,10,-2595.37,-1927.37)">
                    <g transform="matrix(10,0,0,10,612.058,397.366)">
                    </g>
                    <text x="534.778px" y="397.366px" style="font-family:'ArialMT', 'Arial', sans-serif;font-size:10px;">Lodestance Peak</text>
                </g>
                <g transform="matrix(10,0,0,10,-1611.02,-2486.3)">
                    <g transform="matrix(10,0,0,10,558.132,397.366)">
                    </g>
                    <text x="534.778px" y="397.366px" style="font-family:'ArialMT', 'Arial', sans-serif;font-size:10px;">Kend</text>
                </g>
                <path d="M-298.829,2097.62C-287.251,2089.05 -148.65,2102.12 -133.438,2100.82C31.697,2086.68 138.085,2086.79 231.636,2005.25C264.708,1976.43 323.028,1966.38 353.492,1955.53C373.225,1948.5 417.461,1940.59 433.801,1927.48C454.461,1910.91 465.009,1888.81 477.449,1856.08C505.462,1782.37 582.497,1497.87 582.497,1497.87C582.497,1497.87 626.087,1274.42 667.457,1211.93C687.312,1181.94 774.179,1129.14 792.978,1110.25C800.848,1102.35 798.71,1088.96 793.928,1083.31C791.611,1080.57 785.888,1077.26 785.888,1077.26" style="fill:none;stroke:rgb(16,0,255);stroke-width:5.33px;stroke-linejoin:miter;stroke-miterlimit:5;"/>
                <g transform="matrix(1,0,0,1,-249.225,-439.111)">
                    <path d="M2645.01,2594.03C2645.01,2594.03 2666.35,2578.76 2671.66,2567.38C2678.2,2553.35 2684.28,2509.86 2684.28,2509.86L2685.69,2471.98" style="fill:none;stroke:black;stroke-width:6.49px;stroke-linejoin:miter;stroke-miterlimit:5;"/>
                </g>
                <g transform="matrix(1,0,0,1,-95.734,-488.956)">
                    <path d="M2593.1,2594.03C2593.1,2594.03 2623.03,2553.1 2635.18,2540.72C2643.89,2531.86 2658.66,2529.78 2666.01,2519.77C2674.43,2508.32 2685.69,2471.98 2685.69,2471.98C2685.69,2471.98 2705.06,2502.55 2716.55,2512.54C2730.81,2524.93 2769.97,2567.63 2769.97,2567.63" style="fill:none;stroke:black;stroke-width:6.49px;stroke-linejoin:miter;stroke-miterlimit:5;"/>
                </g>
                <g transform="matrix(1,0,0,1,-95.734,-488.956)">
                    <path d="M2645.01,2594.03C2645.01,2594.03 2666.35,2578.76 2671.66,2567.38C2678.2,2553.35 2684.28,2509.86 2684.28,2509.86L2685.69,2471.98" style="fill:none;stroke:black;stroke-width:6.49px;stroke-linejoin:miter;stroke-miterlimit:5;"/>
                </g>
                <g transform="matrix(1,0,0,1,-128.173,-117.887)">
                    <path d="M2593.1,2594.03C2593.1,2594.03 2623.03,2553.1 2635.18,2540.72C2643.89,2531.86 2658.66,2529.78 2666.01,2519.77C2674.43,2508.32 2685.69,2471.98 2685.69,2471.98C2685.69,2471.98 2705.06,2502.55 2716.55,2512.54C2730.81,2524.93 2769.97,2567.63 2769.97,2567.63" style="fill:none;stroke:black;stroke-width:6.49px;stroke-linejoin:miter;stroke-miterlimit:5;"/>
                </g>
                <g transform="matrix(1,0,0,1,-128.173,-117.887)">
                    <path d="M2645.01,2594.03C2645.01,2594.03 2666.35,2578.76 2671.66,2567.38C2678.2,2553.35 2684.28,2509.86 2684.28,2509.86L2685.69,2471.98" style="fill:none;stroke:black;stroke-width:6.49px;stroke-linejoin:miter;stroke-miterlimit:5;"/>
                </g>
                <g transform="matrix(1,0,0,1,42.7243,-399.551)">
                    <path d="M2478.38,2725.37C2478.38,2725.37 2623.03,2553.1 2635.18,2540.72C2643.89,2531.86 2658.66,2529.78 2666.01,2519.77C2674.43,2508.32 2685.69,2471.98 2685.69,2471.98C2685.69,2471.98 2705.06,2502.55 2716.55,2512.54C2730.81,2524.93 2863.33,2688.68 2863.33,2688.68" style="fill:none;stroke:black;stroke-width:6.49px;stroke-linejoin:miter;stroke-miterlimit:5;"/>
                </g>
                <path d="M2645.01,2594.03C2645.01,2594.03 2666.35,2578.76 2671.66,2567.38C2678.2,2553.35 2684.28,2509.86 2684.28,2509.86L2685.69,2471.98" style="fill:none;stroke:black;stroke-width:6.49px;stroke-linejoin:miter;stroke-miterlimit:5;"/>
                <g transform="matrix(1,0,0,1,-4220.86,-1478.86)">
                    <path d="M2915.21,4794C2898.34,4812.61 3185.55,4965.83 3511.38,5024.17C3675.02,5053.48 3787.2,5002.06 3905.61,4999.9C4072.87,4996.86 4232.54,5036.08 4393.69,5054.07C4554.46,5072.01 4744.37,5115.23 4840.88,5132.37C4889.57,5141.02 4938.78,5147.42 4986.74,5159.51C5037.76,5172.37 5147,5209.54 5147,5209.54C5147,5209.54 5312.22,5290.8 5392.92,5309.6C5470.38,5327.64 5563.08,5332.49 5631.2,5322.32C5692.43,5313.17 5782.61,5255.95 5801.64,5248.54C6029.61,5159.87 6245.63,5107.26 6390.92,5067.27C6488.21,5040.48 6657.3,5010.14 6673.36,5008.57C6804.71,4995.69 7204.21,4881.18 7600.32,4851.83C7919.32,4828.2 8095.05,4844.4 8163.9,4842.56C8227.1,4840.87 8561.25,4816.18 8802.3,4862.82C8986.65,4898.49 9075.25,5000.38 9193.25,5039.85C9413.88,5113.66 9608.1,5254.03 9797.54,5389.09C10000.3,5533.62 10229.2,5766.44 10409.7,5907.05C10560.2,6024.33 10751.7,6219.66 10880.5,6232.74C11009.4,6245.82 11061.3,5958.49 11166.6,5903.56C11268.8,5850.26 11422.6,5927.96 11523.6,5983.49C11645.9,6050.78 11738.5,6240.93 11868.6,6344.26C11985.5,6437.08 12304.4,6579.36 12304.4,6579.36" style="fill:none;stroke:rgb(255,0,0);stroke-width:8.3px;stroke-linejoin:miter;stroke-miterlimit:5;stroke-dasharray:24.91,24.91,0,0;"/>
                </g>
                <path d="M2593.1,2594.03C2593.1,2594.03 2623.03,2553.1 2635.18,2540.72C2643.89,2531.86 2658.66,2529.78 2666.01,2519.77C2674.43,2508.32 2685.69,2471.98 2685.69,2471.98C2685.69,2471.98 2705.06,2502.55 2716.55,2512.54C2730.81,2524.93 2769.97,2567.63 2769.97,2567.63" style="fill:none;stroke:black;stroke-width:6.49px;stroke-linejoin:miter;stroke-miterlimit:5;"/>
                <g transform="matrix(1,0,0,1,188.303,-52.2186)">
                    <path d="M2593.1,2594.03C2593.1,2594.03 2623.03,2553.1 2635.18,2540.72C2643.89,2531.86 2658.66,2529.78 2666.01,2519.77C2674.43,2508.32 2685.69,2471.98 2685.69,2471.98C2685.69,2471.98 2705.06,2502.55 2716.55,2512.54C2730.81,2524.93 2769.97,2567.63 2769.97,2567.63" style="fill:none;stroke:black;stroke-width:6.49px;stroke-linejoin:miter;stroke-miterlimit:5;"/>
                </g>
                <g transform="matrix(1,0,0,1,188.303,-52.2186)">
                    <path d="M2645.01,2594.03C2645.01,2594.03 2666.35,2578.76 2671.66,2567.38C2678.2,2553.35 2684.28,2509.86 2684.28,2509.86L2685.69,2471.98" style="fill:none;stroke:black;stroke-width:6.49px;stroke-linejoin:miter;stroke-miterlimit:5;"/>
                </g>
                <g transform="matrix(1,0,0,1,78.3278,-163.776)">
                    <path d="M2593.1,2594.03C2593.1,2594.03 2623.03,2553.1 2635.18,2540.72C2643.89,2531.86 2658.66,2529.78 2666.01,2519.77C2674.43,2508.32 2685.69,2471.98 2685.69,2471.98C2685.69,2471.98 2705.06,2502.55 2716.55,2512.54C2730.81,2524.93 2769.97,2567.63 2769.97,2567.63" style="fill:none;stroke:black;stroke-width:6.49px;stroke-linejoin:miter;stroke-miterlimit:5;"/>
                </g>
                <g transform="matrix(1,0,0,1,78.3278,-163.776)">
                    <path d="M2645.01,2594.03C2645.01,2594.03 2666.35,2578.76 2671.66,2567.38C2678.2,2553.35 2684.28,2509.86 2684.28,2509.86L2685.69,2471.98" style="fill:none;stroke:black;stroke-width:6.49px;stroke-linejoin:miter;stroke-miterlimit:5;"/>
                </g>
                <g transform="matrix(1,0,0,1,-249.225,-439.111)">
                    <path d="M2593.1,2594.03C2593.1,2594.03 2623.03,2553.1 2635.18,2540.72C2643.89,2531.86 2658.66,2529.78 2666.01,2519.77C2674.43,2508.32 2685.69,2471.98 2685.69,2471.98C2685.69,2471.98 2705.06,2502.55 2716.55,2512.54C2730.81,2524.93 2769.97,2567.63 2769.97,2567.63" style="fill:none;stroke:black;stroke-width:6.49px;stroke-linejoin:miter;stroke-miterlimit:5;"/>
                </g>
                <g transform="matrix(1,0,0,1,42.7243,-399.551)">
                    <path d="M2279.53,2879.82C2279.53,2879.82 2542.08,2774.59 2621.81,2709C2675.54,2664.8 2684.28,2509.86 2684.28,2509.86L2685.69,2471.98" style="fill:none;stroke:black;stroke-width:6.49px;stroke-linejoin:miter;stroke-miterlimit:5;stroke-dasharray:19.48,19.48,0,0;"/>
                </g>
                <g transform="matrix(1,0,0,1,-4226,-1484)">
                    <path d="M3964.02,3125.25C3964.02,3125.25 4048,3204.46 4100.26,3225.77C4178.08,3257.52 4328.86,3281.11 4430.93,3315.72C4527.32,3348.4 4643.01,3393.98 4712.67,3433.44C4765.14,3463.16 4802.55,3513.91 4848.91,3552.48C4913.28,3606.05 5042.69,3705.7 5098.9,3754.86C5130.83,3782.78 5164.82,3814.38 5186.2,3847.45C5206.74,3879.21 5220.1,3916.11 5227.2,3953.26C5235.8,3998.23 5227.54,4063.46 5237.78,4117.28C5248.15,4171.73 5279.24,4223.99 5289.37,4279.97C5301.94,4349.41 5310.53,4460.08 5313.18,4533.93C5315.44,4596.99 5306.82,4659.99 5305.24,4723.08C5303.04,4811.04 5313.18,4975.71 5299.95,5061.69C5290.22,5124.98 5240.72,5219.36 5225.88,5238.93C5190.61,5285.45 5089.64,5393.91 5040.7,5449.24C5004.7,5489.94 4965.56,5528.01 4932.24,5570.93C4891.78,5623.04 4809.92,5775.45 4737.54,5850.1C4709.15,5879.38 4389.07,6122.57 4408.72,6108.47" style="fill:none;stroke:black;stroke-width:11.32px;stroke-linejoin:miter;stroke-miterlimit:5;stroke-dasharray:33.97,33.97,0,0;"/>
                </g>
                <g transform="matrix(0.569361,0.822087,-0.822087,0.569361,2954.04,-3944.09)">
                    <path d="M4847.72,4133.94C4872.08,4255.24 4893.39,4381.13 4920.8,4497.86C4947.36,4611 5005.5,4718.3 5012.14,4834.33C5020.43,4979.06 4983.83,5243.49 4970.51,5366.26C4963.03,5435.26 4947.57,5522.01 4932.24,5570.93C4921.89,5603.96 4878.55,5659.8 4878.55,5659.8" style="fill:none;stroke:black;stroke-width:11.32px;stroke-linejoin:miter;stroke-miterlimit:5;stroke-dasharray:33.97,33.97,0,0;"/>
                </g>
                <g transform="matrix(0.569361,0.822087,-0.822087,0.569361,2820.84,-4820.02)">
                    <path d="M4985.76,4573.23C4985.76,4573.23 4953.75,4604.62 4976.44,4682.21C5007.6,4788.74 5096.78,4957.46 5102.61,5024.73C5104.85,5050.46 5083.06,5108.06 5076.89,5132.96C5060.85,5197.68 5064.36,5253.99 5039.77,5316.42C5029.98,5341.26 4972.44,5360.73 4956.76,5395.65C4911.88,5495.61 4898.26,5626.55 4898.26,5626.55" style="fill:none;stroke:black;stroke-width:11.32px;stroke-linejoin:miter;stroke-miterlimit:5;stroke-dasharray:33.97,33.97,0,0;"/>
                </g>
                <g transform="matrix(1,0,0,1,-3348.32,-1141.62)">
                    <path d="M6699.71,3389.01C6699.71,3389.01 6716.31,3367.43 6753.98,3367.98C6798.03,3368.63 6798.76,3386.3 6798.76,3386.3" style="fill:none;stroke:black;stroke-width:6.49px;stroke-linejoin:miter;stroke-miterlimit:5;"/>
                </g>
                <g transform="matrix(1,0,0,1,-3518.24,-1075.75)">
                    <path d="M6699.71,3389.01C6699.71,3389.01 6716.31,3367.43 6753.98,3367.98C6798.03,3368.63 6798.76,3386.3 6798.76,3386.3" style="fill:none;stroke:black;stroke-width:6.49px;stroke-linejoin:miter;stroke-miterlimit:5;"/>
                </g>
                <g transform="matrix(1,0,0,1,-3345.6,-1083.02)">
                    <path d="M6699.71,3389.01C6699.71,3389.01 6716.31,3367.43 6753.98,3367.98C6798.03,3368.63 6798.76,3386.3 6798.76,3386.3" style="fill:none;stroke:black;stroke-width:6.49px;stroke-linejoin:miter;stroke-miterlimit:5;"/>
                </g>
                <g transform="matrix(1,0,0,1,-3190.27,-1076.66)">
                    <path d="M6699.71,3389.01C6699.71,3389.01 6716.31,3367.43 6753.98,3367.98C6798.03,3368.63 6798.76,3386.3 6798.76,3386.3" style="fill:none;stroke:black;stroke-width:6.49px;stroke-linejoin:miter;stroke-miterlimit:5;"/>
                </g>
                <g transform="matrix(1,0,0,1,-3322.43,-996.241)">
                    <path d="M6699.71,3389.01C6699.71,3389.01 6716.31,3367.43 6753.98,3367.98C6798.03,3368.63 6798.76,3386.3 6798.76,3386.3" style="fill:none;stroke:black;stroke-width:6.49px;stroke-linejoin:miter;stroke-miterlimit:5;"/>
                </g>
                <g transform="matrix(1,0,0,1,-3195.22,-966.71)">
                    <path d="M6699.71,3389.01C6699.71,3389.01 6716.31,3367.43 6753.98,3367.98C6798.03,3368.63 6798.76,3386.3 6798.76,3386.3" style="fill:none;stroke:black;stroke-width:6.49px;stroke-linejoin:miter;stroke-miterlimit:5;"/>
                </g>
                <g transform="matrix(1,0,0,1,-3232.47,-923.095)">
                    <path d="M6699.71,3389.01C6699.71,3389.01 6716.31,3367.43 6753.98,3367.98C6798.03,3368.63 6798.76,3386.3 6798.76,3386.3" style="fill:none;stroke:black;stroke-width:6.49px;stroke-linejoin:miter;stroke-miterlimit:5;"/>
                </g>
                <g transform="matrix(1,0,0,1,-3414.65,-918.552)">
                    <path d="M6699.71,3389.01C6699.71,3389.01 6716.31,3367.43 6753.98,3367.98C6798.03,3368.63 6798.76,3386.3 6798.76,3386.3" style="fill:none;stroke:black;stroke-width:6.49px;stroke-linejoin:miter;stroke-miterlimit:5;"/>
                </g>
                <g transform="matrix(1,0,0,1,-3271.54,-867.668)">
                    <path d="M6699.71,3389.01C6699.71,3389.01 6716.31,3367.43 6753.98,3367.98C6798.03,3368.63 6798.76,3386.3 6798.76,3386.3" style="fill:none;stroke:black;stroke-width:6.49px;stroke-linejoin:miter;stroke-miterlimit:5;"/>
                </g>
                <g transform="matrix(1,0,0,1,-3174.32,-828.596)">
                    <path d="M6699.71,3389.01C6699.71,3389.01 6716.31,3367.43 6753.98,3367.98C6798.03,3368.63 6798.76,3386.3 6798.76,3386.3" style="fill:none;stroke:black;stroke-width:6.49px;stroke-linejoin:miter;stroke-miterlimit:5;"/>
                </g>
                <g transform="matrix(1,0,0,1,-3235.65,-766.354)">
                    <path d="M6699.71,3389.01C6699.71,3389.01 6716.31,3367.43 6753.98,3367.98C6798.03,3368.63 6798.76,3386.3 6798.76,3386.3" style="fill:none;stroke:black;stroke-width:6.49px;stroke-linejoin:miter;stroke-miterlimit:5;"/>
                </g>
                <g transform="matrix(1,0,0,1,-3255.19,-700.632)">
                    <path d="M6699.71,3389.01C6699.71,3389.01 6716.31,3367.43 6753.98,3367.98C6798.03,3368.63 6798.76,3386.3 6798.76,3386.3" style="fill:none;stroke:black;stroke-width:6.49px;stroke-linejoin:miter;stroke-miterlimit:5;"/>
                </g>
                <g transform="matrix(1,0,0,1,-3219.29,-539.575)">
                    <path d="M6699.71,3389.01C6699.71,3389.01 6716.31,3367.43 6753.98,3367.98C6798.03,3368.63 6798.76,3386.3 6798.76,3386.3" style="fill:none;stroke:black;stroke-width:6.49px;stroke-linejoin:miter;stroke-miterlimit:5;"/>
                </g>
                <g transform="matrix(1,0,0,1,-4226,-1484)">
                    <path d="M6699.71,3389.01C6699.71,3389.01 6716.31,3367.43 6753.98,3367.98C6798.03,3368.63 6798.76,3386.3 6798.76,3386.3" style="fill:none;stroke:black;stroke-width:6.49px;stroke-linejoin:miter;stroke-miterlimit:5;"/>
                </g>
                <g transform="matrix(1,0,0,1,-4128.99,-1432.44)">
                    <path d="M6699.71,3389.01C6699.71,3389.01 6716.31,3367.43 6753.98,3367.98C6798.03,3368.63 6798.76,3386.3 6798.76,3386.3" style="fill:none;stroke:black;stroke-width:6.49px;stroke-linejoin:miter;stroke-miterlimit:5;"/>
                </g>
                <g transform="matrix(1,0,0,1,-3995.35,-1431.09)">
                    <path d="M6699.71,3389.01C6699.71,3389.01 6716.31,3367.43 6753.98,3367.98C6798.03,3368.63 6798.76,3386.3 6798.76,3386.3" style="fill:none;stroke:black;stroke-width:6.49px;stroke-linejoin:miter;stroke-miterlimit:5;"/>
                </g>
                <g transform="matrix(1,0,0,1,-4312.15,-1372.07)">
                    <path d="M6699.71,3389.01C6699.71,3389.01 6716.31,3367.43 6753.98,3367.98C6798.03,3368.63 6798.76,3386.3 6798.76,3386.3" style="fill:none;stroke:black;stroke-width:6.49px;stroke-linejoin:miter;stroke-miterlimit:5;"/>
                </g>
                <g transform="matrix(1,0,0,1,-4483.05,-1260.51)">
                    <path d="M6699.71,3389.01C6699.71,3389.01 6716.31,3367.43 6753.98,3367.98C6798.03,3368.63 6798.76,3386.3 6798.76,3386.3" style="fill:none;stroke:black;stroke-width:6.49px;stroke-linejoin:miter;stroke-miterlimit:5;"/>
                </g>
                <g transform="matrix(1,0,0,1,-3865.78,-1304.91)">
                    <path d="M6699.71,3389.01C6699.71,3389.01 6716.31,3367.43 6753.98,3367.98C6798.03,3368.63 6798.76,3386.3 6798.76,3386.3" style="fill:none;stroke:black;stroke-width:6.49px;stroke-linejoin:miter;stroke-miterlimit:5;"/>
                </g>
                <g transform="matrix(1,0,0,1,-3733.5,-1122.42)">
                    <path d="M6699.71,3389.01C6699.71,3389.01 6716.31,3367.43 6753.98,3367.98C6798.03,3368.63 6798.76,3386.3 6798.76,3386.3" style="fill:none;stroke:black;stroke-width:6.49px;stroke-linejoin:miter;stroke-miterlimit:5;"/>
                </g>
                <g transform="matrix(1,0,0,1,-3629.7,-1184.16)">
                    <path d="M6699.71,3389.01C6699.71,3389.01 6716.31,3367.43 6753.98,3367.98C6798.03,3368.63 6798.76,3386.3 6798.76,3386.3" style="fill:none;stroke:black;stroke-width:6.49px;stroke-linejoin:miter;stroke-miterlimit:5;"/>
                </g>
                <g transform="matrix(1,0,0,1,-3805.4,-1243.18)">
                    <path d="M6699.71,3389.01C6699.71,3389.01 6716.31,3367.43 6753.98,3367.98C6798.03,3368.63 6798.76,3386.3 6798.76,3386.3" style="fill:none;stroke:black;stroke-width:6.49px;stroke-linejoin:miter;stroke-miterlimit:5;"/>
                </g>
                <g transform="matrix(1,0,0,1,-4261.92,-812.654)">
                    <path d="M6699.71,3389.01C6699.71,3389.01 6716.31,3367.43 6753.98,3367.98C6798.03,3368.63 6798.76,3386.3 6798.76,3386.3" style="fill:none;stroke:black;stroke-width:6.49px;stroke-linejoin:miter;stroke-miterlimit:5;"/>
                </g>
                <g transform="matrix(1,0,0,1,-4298.35,-1019.93)">
                    <path d="M6699.71,3389.01C6699.71,3389.01 6716.31,3367.43 6753.98,3367.98C6798.03,3368.63 6798.76,3386.3 6798.76,3386.3" style="fill:none;stroke:black;stroke-width:6.49px;stroke-linejoin:miter;stroke-miterlimit:5;"/>
                </g>
                <g transform="matrix(1,0,0,1,-4389.34,-1097.46)">
                    <path d="M6699.71,3389.01C6699.71,3389.01 6716.31,3367.43 6753.98,3367.98C6798.03,3368.63 6798.76,3386.3 6798.76,3386.3" style="fill:none;stroke:black;stroke-width:6.49px;stroke-linejoin:miter;stroke-miterlimit:5;"/>
                </g>
                <g transform="matrix(1,0,0,1,-3700.21,-1007.27)">
                    <path d="M6699.71,3389.01C6699.71,3389.01 6716.31,3367.43 6753.98,3367.98C6798.03,3368.63 6798.76,3386.3 6798.76,3386.3" style="fill:none;stroke:black;stroke-width:6.49px;stroke-linejoin:miter;stroke-miterlimit:5;"/>
                </g>
                <g transform="matrix(1,0,0,1,-3879.99,-561.205)">
                    <path d="M6699.71,3389.01C6699.71,3389.01 6716.31,3367.43 6753.98,3367.98C6798.03,3368.63 6798.76,3386.3 6798.76,3386.3" style="fill:none;stroke:black;stroke-width:6.49px;stroke-linejoin:miter;stroke-miterlimit:5;"/>
                </g>
                <g transform="matrix(1,0,0,1,-3538.02,-988.277)">
                    <path d="M6699.71,3389.01C6699.71,3389.01 6716.31,3367.43 6753.98,3367.98C6798.03,3368.63 6798.76,3386.3 6798.76,3386.3" style="fill:none;stroke:black;stroke-width:6.49px;stroke-linejoin:miter;stroke-miterlimit:5;"/>
                </g>
                <g transform="matrix(1,0,0,1,-3644.83,-916.279)">
                    <path d="M6699.71,3389.01C6699.71,3389.01 6716.31,3367.43 6753.98,3367.98C6798.03,3368.63 6798.76,3386.3 6798.76,3386.3" style="fill:none;stroke:black;stroke-width:6.49px;stroke-linejoin:miter;stroke-miterlimit:5;"/>
                </g>
                <g transform="matrix(1,0,0,1,-3566.5,-868.017)">
                    <path d="M6699.71,3389.01C6699.71,3389.01 6716.31,3367.43 6753.98,3367.98C6798.03,3368.63 6798.76,3386.3 6798.76,3386.3" style="fill:none;stroke:black;stroke-width:6.49px;stroke-linejoin:miter;stroke-miterlimit:5;"/>
                </g>
                <g transform="matrix(1,0,0,1,-3450.99,-832.413)">
                    <path d="M6699.71,3389.01C6699.71,3389.01 6716.31,3367.43 6753.98,3367.98C6798.03,3368.63 6798.76,3386.3 6798.76,3386.3" style="fill:none;stroke:black;stroke-width:6.49px;stroke-linejoin:miter;stroke-miterlimit:5;"/>
                </g>
                <g transform="matrix(1,0,0,1,-4184.62,-719.467)">
                    <path d="M6699.71,3389.01C6699.71,3389.01 6716.31,3367.43 6753.98,3367.98C6798.03,3368.63 6798.76,3386.3 6798.76,3386.3" style="fill:none;stroke:black;stroke-width:6.49px;stroke-linejoin:miter;stroke-miterlimit:5;"/>
                </g>
                <g transform="matrix(1,0,0,1,-4016.38,-730.999)">
                    <path d="M6699.71,3389.01C6699.71,3389.01 6716.31,3367.43 6753.98,3367.98C6798.03,3368.63 6798.76,3386.3 6798.76,3386.3" style="fill:none;stroke:black;stroke-width:6.49px;stroke-linejoin:miter;stroke-miterlimit:5;"/>
                </g>
                <g transform="matrix(1,0,0,1,-3891.56,-730.321)">
                    <path d="M6699.71,3389.01C6699.71,3389.01 6716.31,3367.43 6753.98,3367.98C6798.03,3368.63 6798.76,3386.3 6798.76,3386.3" style="fill:none;stroke:black;stroke-width:6.49px;stroke-linejoin:miter;stroke-miterlimit:5;"/>
                </g>
                <g transform="matrix(1,0,0,1,-3747.06,-763.561)">
                    <path d="M6699.71,3389.01C6699.71,3389.01 6716.31,3367.43 6753.98,3367.98C6798.03,3368.63 6798.76,3386.3 6798.76,3386.3" style="fill:none;stroke:black;stroke-width:6.49px;stroke-linejoin:miter;stroke-miterlimit:5;"/>
                </g>
                <g transform="matrix(1,0,0,1,-4226,-1484)">
                    <path d="M6699.71,3389.01C6699.71,3389.01 6716.31,3367.43 6753.98,3367.98C6798.03,3368.63 6798.76,3386.3 6798.76,3386.3" style="fill:none;stroke:black;stroke-width:6.49px;stroke-linejoin:miter;stroke-miterlimit:5;"/>
                </g>
                <g transform="matrix(1,0,0,1,-4018.67,-612.505)">
                    <path d="M6699.71,3389.01C6699.71,3389.01 6716.31,3367.43 6753.98,3367.98C6798.03,3368.63 6798.76,3386.3 6798.76,3386.3" style="fill:none;stroke:black;stroke-width:6.49px;stroke-linejoin:miter;stroke-miterlimit:5;"/>
                </g>
                <g transform="matrix(1,0,0,1,-3933.52,-429.341)">
                    <path d="M6699.71,3389.01C6699.71,3389.01 6716.31,3367.43 6753.98,3367.98C6798.03,3368.63 6798.76,3386.3 6798.76,3386.3" style="fill:none;stroke:black;stroke-width:6.49px;stroke-linejoin:miter;stroke-miterlimit:5;"/>
                </g>
                <g transform="matrix(1,0,0,1,-3417.66,-527.409)">
                    <path d="M6699.71,3389.01C6699.71,3389.01 6716.31,3367.43 6753.98,3367.98C6798.03,3368.63 6798.76,3386.3 6798.76,3386.3" style="fill:none;stroke:black;stroke-width:6.49px;stroke-linejoin:miter;stroke-miterlimit:5;"/>
                </g>
                <g transform="matrix(1.23822,0,0,1.46316,-726.582,-1160.82)">
                    <path d="M2898.91,2365.02C2948.01,2415.99 3003.66,2472.1 3046.21,2517.93C3083.17,2557.74 3132.08,2590.36 3154.22,2639.97C3179.47,2696.55 3184.85,2798.49 3197.71,2857.41C3205.56,2893.37 3186.87,2929.66 3194.73,2964.56C3196.85,2973.97 3207.47,3008.49 3208.66,3017.4C3213.77,3055.63 3229.74,3070.98 3231.38,3109.21C3233.01,3147.19 3297.96,3266.5 3315.74,3301.4C3353.13,3374.82 3411.78,3372.3 3438.88,3429.75" style="fill:none;stroke:black;stroke-width:4.79px;stroke-linejoin:miter;stroke-miterlimit:5;stroke-dasharray:14.38,14.38,0,0;"/>
                </g>
                <g transform="matrix(1,0,0,1,-3845.43,-663.84)">
                    <path d="M6699.71,3389.01C6699.71,3389.01 6716.31,3367.43 6753.98,3367.98C6798.03,3368.63 6798.76,3386.3 6798.76,3386.3" style="fill:none;stroke:black;stroke-width:6.49px;stroke-linejoin:miter;stroke-miterlimit:5;"/>
                </g>
                <g transform="matrix(1,0,0,1,-3440.44,-435.666)">
                    <path d="M6699.71,3389.01C6699.71,3389.01 6716.31,3367.43 6753.98,3367.98C6798.03,3368.63 6798.76,3386.3 6798.76,3386.3" style="fill:none;stroke:black;stroke-width:6.49px;stroke-linejoin:miter;stroke-miterlimit:5;"/>
                </g>
                <g transform="matrix(1,0,0,1,-3430.57,-636.365)">
                    <path d="M6699.71,3389.01C6699.71,3389.01 6716.31,3367.43 6753.98,3367.98C6798.03,3368.63 6798.76,3386.3 6798.76,3386.3" style="fill:none;stroke:black;stroke-width:6.49px;stroke-linejoin:miter;stroke-miterlimit:5;"/>
                </g>
                <g transform="matrix(1,0,0,1,-3733.26,-580.433)">
                    <path d="M6699.71,3389.01C6699.71,3389.01 6716.31,3367.43 6753.98,3367.98C6798.03,3368.63 6798.76,3386.3 6798.76,3386.3" style="fill:none;stroke:black;stroke-width:6.49px;stroke-linejoin:miter;stroke-miterlimit:5;"/>
                </g>
                <g transform="matrix(1,0,0,1,-3437.15,-703.813)">
                    <path d="M6699.71,3389.01C6699.71,3389.01 6716.31,3367.43 6753.98,3367.98C6798.03,3368.63 6798.76,3386.3 6798.76,3386.3" style="fill:none;stroke:black;stroke-width:6.49px;stroke-linejoin:miter;stroke-miterlimit:5;"/>
                </g>
                <g transform="matrix(1,0,0,1,-3662.52,-376.443)">
                    <path d="M6699.71,3389.01C6699.71,3389.01 6716.31,3367.43 6753.98,3367.98C6798.03,3368.63 6798.76,3386.3 6798.76,3386.3" style="fill:none;stroke:black;stroke-width:6.49px;stroke-linejoin:miter;stroke-miterlimit:5;"/>
                </g>
                <g transform="matrix(1,0,0,1,-3808.93,-318.866)">
                    <path d="M6699.71,3389.01C6699.71,3389.01 6716.31,3367.43 6753.98,3367.98C6798.03,3368.63 6798.76,3386.3 6798.76,3386.3" style="fill:none;stroke:black;stroke-width:6.49px;stroke-linejoin:miter;stroke-miterlimit:5;"/>
                </g>
                <g transform="matrix(1,0,0,1,-3813.87,-211.936)">
                    <path d="M6699.71,3389.01C6699.71,3389.01 6716.31,3367.43 6753.98,3367.98C6798.03,3368.63 6798.76,3386.3 6798.76,3386.3" style="fill:none;stroke:black;stroke-width:6.49px;stroke-linejoin:miter;stroke-miterlimit:5;"/>
                </g>
                <path d="M-2195.46,3743.91C-2130.33,3769.25 -1944.7,3829.54 -1833.88,3828.81C-1731.22,3828.13 -1615.92,3814.28 -1562.04,3830.41C-1505.65,3847.28 -1346.46,3968.31 -1237.88,3968.68C-1112.7,3969.09 -939.744,3912.58 -784.807,3891.16C-649.695,3872.48 -471.749,3888.78 -341.636,3844.31C-193.759,3793.77 -105.956,3662.92 -15.217,3583.73C7.253,3564.13 59.181,3567.63 78.4,3550.14C144.673,3489.82 124.754,3441.95 177.727,3409.88C233.426,3376.16 213.425,3293.09 241.205,3236.13C268.984,3179.17 272.461,3164.49 300.268,3106.33C339.136,3025.03 464.065,2915.52 473.753,2803.03C483.441,2690.54 393.271,2561.43 373.545,2461.7C359.139,2388.86 366.248,2230.15 375.819,2168.38C383.685,2117.61 413.929,2102.96 421.749,2061.41C427.976,2028.32 430.212,2010.17 431.963,1988.23C432.79,1977.86 455.819,1902.55 455.819,1902.55" style="fill:none;stroke:rgb(16,0,255);stroke-width:8.3px;stroke-linejoin:miter;stroke-miterlimit:5;"/>
                <path d="M2593.1,2594.03C2593.1,2594.03 2623.03,2553.1 2635.18,2540.72C2643.89,2531.86 2658.66,2529.78 2666.01,2519.77C2674.43,2508.32 2685.69,2471.98 2685.69,2471.98C2685.69,2471.98 2705.06,2502.55 2716.55,2512.54C2730.81,2524.93 2769.97,2567.63 2769.97,2567.63" style="fill:none;stroke:black;stroke-width:6.49px;stroke-linejoin:miter;stroke-miterlimit:5;"/>
                <path d="M2593.1,2594.03C2593.1,2594.03 2623.03,2553.1 2635.18,2540.72C2643.89,2531.86 2658.66,2529.78 2666.01,2519.77C2674.43,2508.32 2685.69,2471.98 2685.69,2471.98C2685.69,2471.98 2705.06,2502.55 2716.55,2512.54C2730.81,2524.93 2769.97,2567.63 2769.97,2567.63" style="fill:none;stroke:black;stroke-width:6.49px;stroke-linejoin:miter;stroke-miterlimit:5;"/>
                <path d="M2593.1,2594.03C2593.1,2594.03 2623.03,2553.1 2635.18,2540.72C2643.89,2531.86 2658.66,2529.78 2666.01,2519.77C2674.43,2508.32 2685.69,2471.98 2685.69,2471.98C2685.69,2471.98 2705.06,2502.55 2716.55,2512.54C2730.81,2524.93 2769.97,2567.63 2769.97,2567.63" style="fill:none;stroke:black;stroke-width:6.49px;stroke-linejoin:miter;stroke-miterlimit:5;"/>
                <path d="M2593.1,2594.03C2593.1,2594.03 2623.03,2553.1 2635.18,2540.72C2643.89,2531.86 2658.66,2529.78 2666.01,2519.77C2674.43,2508.32 2685.69,2471.98 2685.69,2471.98C2685.69,2471.98 2705.06,2502.55 2716.55,2512.54C2730.81,2524.93 2769.97,2567.63 2769.97,2567.63" style="fill:none;stroke:black;stroke-width:6.49px;stroke-linejoin:miter;stroke-miterlimit:5;"/>
                <g transform="matrix(1,0,0,1,-7173.3,-1622.66)">
                    <path d="M6699.71,3389.01C6699.71,3389.01 6716.31,3367.43 6753.98,3367.98C6798.03,3368.63 6798.76,3386.3 6798.76,3386.3" style="fill:none;stroke:black;stroke-width:6.49px;stroke-linejoin:miter;stroke-miterlimit:5;"/>
                </g>
                <g transform="matrix(1,0,0,1,-7158.73,-1673.27)">
                    <path d="M6699.71,3389.01C6699.71,3389.01 6716.31,3367.43 6753.98,3367.98C6798.03,3368.63 6798.76,3386.3 6798.76,3386.3" style="fill:none;stroke:black;stroke-width:6.49px;stroke-linejoin:miter;stroke-miterlimit:5;"/>
                </g>
                <g transform="matrix(1,0,0,1,-7056.72,-1729.26)">
                    <path d="M6699.71,3389.01C6699.71,3389.01 6716.31,3367.43 6753.98,3367.98C6798.03,3368.63 6798.76,3386.3 6798.76,3386.3" style="fill:none;stroke:black;stroke-width:6.49px;stroke-linejoin:miter;stroke-miterlimit:5;"/>
                </g>
            </g>
            <g id="towns" transform="matrix(1,0,0,1,4226.26,1484.56)">
                <g transform="matrix(10,0,0,10,-6120.24,-2076.1)">
                    <g transform="matrix(10,0,0,10,584.256,397.366)">
                    </g>
                    <text x="534.778px" y="397.366px" style="font-family:'ArialMT', 'Arial', sans-serif;font-size:10px;">Moutesque</text>
                </g>
                <g transform="matrix(10,0,0,10,-3456.71,-1022.38)">
                    <g transform="matrix(10,0,0,10,578.67,397.366)">
                    </g>
                    <text x="534.778px" y="397.366px" style="font-family:'ArialMT', 'Arial', sans-serif;font-size:10px;">Greymark</text>
                </g>
                <g transform="matrix(10,0,0,10,-4007.11,-2723.92)">
                    <g transform="matrix(10,0,0,10,584.817,397.366)">
                    </g>
                    <text x="534.778px" y="397.366px" style="font-family:'ArialMT', 'Arial', sans-serif;font-size:10px;">Stonewood</text>
                </g>
                <g transform="matrix(10,0,0,10,-4249.28,-1401.46)">
                    <g transform="matrix(10,0,0,10,566.443,397.366)">
                    </g>
                    <text x="534.778px" y="397.366px" style="font-family:'ArialMT', 'Arial', sans-serif;font-size:10px;">Cromly</text>
                </g>
                <g transform="matrix(10,0,0,10,-4074.15,-989.841)">
                    <g transform="matrix(10,0,0,10,571.458,397.366)">
                    </g>
                    <text x="534.778px" y="397.366px" style="font-family:'ArialMT', 'Arial', sans-serif;font-size:10px;">V<tspan x="540.896px 546.458px " y="397.366px 397.366px ">es</tspan>tmar</text>
                </g>
                <path d="M2455.08,2261.66L2488.84,2190.97L2533.2,2248.78" style="fill:none;stroke:black;stroke-width:8.3px;stroke-linejoin:miter;stroke-miterlimit:5;"/>
                <g transform="matrix(1,0,0,1,-62.7215,-25.7318)">
                    <path d="M2455.08,2261.66L2488.84,2190.97L2533.2,2248.78" style="fill:none;stroke:black;stroke-width:8.3px;stroke-linejoin:miter;stroke-miterlimit:5;"/>
                </g>
                <g transform="matrix(10,0,0,10,-4932.15,-97.8326)">
                    <g transform="matrix(10,0,0,10,569.793,397.366)">
                    </g>
                    <text x="534.778px" y="397.366px" style="font-family:'ArialMT', 'Arial', sans-serif;font-size:10px;">Glavorn</text>
                </g>
                <g transform="matrix(10,0,0,10,-4249.28,-1401.46)">
                    <g transform="matrix(10,0,0,10,566.443,397.366)">
                    </g>
                    <text x="534.778px" y="397.366px" style="font-family:'ArialMT', 'Arial', sans-serif;font-size:10px;">Cromly</text>
                </g>
                <g transform="matrix(10,0,0,10,-3884.02,-653.791)">
                    <g transform="matrix(10,0,0,10,574.617,397.366)">
                    </g>
                    <text x="534.778px" y="397.366px" style="font-family:'ArialMT', 'Arial', sans-serif;font-size:10px;">(V<tspan x="544.597px 546.819px " y="397.366px 397.366px ">in</tspan>dale)</text>
                </g>
                <g transform="matrix(1,0,0,1,895.144,-559.465)">
                    <path d="M1021.72,3356.74L1147.2,3358.67L1147.5,3313.06L1165.79,3313.06L1133.35,3282.7L1041.91,3281.81L1007.24,3313.06L1021.96,3313.06L1021.72,3356.74Z" style="fill:rgb(10,10,10);"/>
                </g>
                <g transform="matrix(1,0,0,1,463.692,-168.788)">
                    <path d="M1021.72,3356.74L1147.2,3358.67L1147.5,3313.06L1165.79,3313.06L1133.35,3282.7L1041.91,3281.81L1007.24,3313.06L1021.96,3313.06L1021.72,3356.74Z" style="fill:rgb(10,10,10);"/>
                </g>
                <g transform="matrix(1,0,0,1,1234.62,-928.332)">
                    <path d="M1021.72,3356.74L1147.2,3358.67L1147.5,3313.06L1165.79,3313.06L1133.35,3282.7L1041.91,3281.81L1007.24,3313.06L1021.96,3313.06L1021.72,3356.74Z" style="fill:rgb(10,10,10);"/>
                </g>
                <g transform="matrix(1,0,0,1,1697.23,116.634)">
                    <path d="M1021.72,3356.74L1147.2,3358.67L1147.5,3313.06L1165.79,3313.06L1133.35,3282.7L1041.91,3281.81L1007.24,3313.06L1021.96,3313.06L1021.72,3356.74Z" style="fill:rgb(10,10,10);"/>
                </g>
                <g transform="matrix(1,0,0,1,742.476,-1969.82)">
                    <path d="M1021.72,3356.74L1147.2,3358.67L1147.5,3313.06L1165.79,3313.06L1133.35,3282.7L1041.91,3281.81L1007.24,3313.06L1021.96,3313.06L1021.72,3356.74Z" style="fill:rgb(10,10,10);"/>
                </g>
                <rect id="glavorn-door-front" serif:id="glavorn door front" x="999.6" y="3790.3" width="70.27" height="39.079" style="fill:white;stroke:white;stroke-width:7.15px;stroke-linejoin:miter;stroke-miterlimit:5;"/>
            </g>
            <g id="Keeps" transform="matrix(1,0,0,1,4226.26,1484.56)">
                <g transform="matrix(10,0,0,10,-3511.76,-1712.98)">
                    <g transform="matrix(10,0,0,10,588.943,397.366)">
                    </g>
                    <text x="534.778px" y="397.366px" style="font-family:'ArialMT', 'Arial', sans-serif;font-size:10px;">Death&apos;s End</text>
                </g>
                <g transform="matrix(10,0,0,10,-2634.09,-649.06)">
                    <g transform="matrix(10,0,0,10,616.502,397.366)">
                    </g>
                    <text x="534.778px" y="397.366px" style="font-family:'ArialMT', 'Arial', sans-serif;font-size:10px;">Dragonheart Keep</text>
                </g>
                <g transform="matrix(10,0,0,10,-2262.22,-3497.5)">
                    <g transform="matrix(10,0,0,10,593.938,397.366)">
                    </g>
                    <text x="534.778px" y="397.366px" style="font-family:'ArialMT', 'Arial', sans-serif;font-size:10px;">Raven&apos;s Hold</text>
                </g>
                <g transform="matrix(9.34495,-3.55977,3.55977,9.34495,-2847.82,-1075.29)">
                    <g transform="matrix(10,0,0,10,574.05,397.366)">
                    </g>
                    <text x="534.778px" y="397.366px" style="font-family:'ArialMT', 'Arial', sans-serif;font-size:10px;">River  <tspan x="563.489px 568.489px " y="397.366px 397.366px ">Ta</tspan></text>
                </g>
                <g transform="matrix(10,0,0,10,-4185.79,-480.859)">
                    <g transform="matrix(10,0,0,10,594.09,397.366)">
                    </g>
                    <text x="534.778px" y="397.366px" style="font-family:'ArialMT', 'Arial', sans-serif;font-size:10px;">V<tspan x="541.267px 543.489px " y="397.366px 397.366px ">in</tspan>dale Keep</text>
                </g>
            </g>
            <g transform="matrix(1,0,0,1,-11.9483,7.62064)">
                <g id="lakes">
                    <path d="M3950.6,3578.43C3948.65,3561.37 3861.8,3558.45 3795.82,3541C3708.85,3517.99 3630.18,3481.78 3552.56,3474.13C3506.39,3469.58 3443.97,3487.84 3387.86,3487.64C3267.5,3487.21 3147.72,3475.8 3079.37,3492.54C3020.55,3506.94 2924.19,3587.76 2951.29,3621.38C2978.39,3655 3152.24,3685.7 3241.96,3694.24C3324.46,3702.09 3412.81,3671.87 3489.63,3672.64C3561.24,3673.35 3632.71,3713.18 3702.88,3698.84C3779.71,3683.14 3955.7,3623.2 3950.6,3578.43Z" style="fill:rgb(3,5,246);"/>
                </g>
            </g>
            <g id="unsorted" transform="matrix(1,0,0,1,4226.26,1484.56)">
                <path d="M996.203,3759.14C996.203,3759.14 1113.76,3846.83 1163.47,3869.27C1205.74,3888.36 1255.27,3897.98 1298.48,3902.96C1339.64,3907.7 1381.35,3901.29 1422.73,3899.15C1464.53,3896.99 1508.51,3901.25 1549.27,3890C1619.02,3870.75 1756.11,3809.64 1841.23,3783.66C1912.75,3761.84 1997.55,3731.1 2070.04,3712.79C2156.56,3690.94 2252.55,3660.81 2335.26,3642.51C2407.43,3626.55 2482.76,3632.16 2556.26,3624.35C2640.61,3615.38 2772.33,3581.58 2853.9,3567.38C2917.54,3556.31 2982.19,3551.29 3045.65,3539.16C3122.07,3524.55 3229.99,3493.55 3312.45,3479.7C3387.77,3467.05 3473.8,3462.17 3540.37,3456.07C3597.47,3450.84 3654.56,3444 3711.89,3443.11C3785.45,3441.97 4324.73,3441.97 4324.73,3441.97" style="fill:none;stroke:black;stroke-width:7.15px;stroke-linejoin:miter;stroke-miterlimit:5;stroke-dasharray:21.46,21.46,0,0;"/>
                <g transform="matrix(1,0,0,1,-3655.82,-218.364)">
                    <path d="M6699.71,3389.01C6699.71,3389.01 6716.31,3367.43 6753.98,3367.98C6798.03,3368.63 6798.76,3386.3 6798.76,3386.3" style="fill:none;stroke:black;stroke-width:6.49px;stroke-linejoin:miter;stroke-miterlimit:5;"/>
                </g>
                <g transform="matrix(1,0,0,1,-3625.33,207.755)">
                    <path d="M6699.71,3389.01C6699.71,3389.01 6716.31,3367.43 6753.98,3367.98C6798.03,3368.63 6798.76,3386.3 6798.76,3386.3" style="fill:none;stroke:black;stroke-width:6.49px;stroke-linejoin:miter;stroke-miterlimit:5;"/>
                </g>
                <g transform="matrix(1,0,0,1,-3751.85,153.166)">
                    <path d="M6699.71,3389.01C6699.71,3389.01 6716.31,3367.43 6753.98,3367.98C6798.03,3368.63 6798.76,3386.3 6798.76,3386.3" style="fill:none;stroke:black;stroke-width:6.49px;stroke-linejoin:miter;stroke-miterlimit:5;"/>
                </g>
                <g transform="matrix(1,0,0,1,-3541.48,114.756)">
                    <path d="M6699.71,3389.01C6699.71,3389.01 6716.31,3367.43 6753.98,3367.98C6798.03,3368.63 6798.76,3386.3 6798.76,3386.3" style="fill:none;stroke:black;stroke-width:6.49px;stroke-linejoin:miter;stroke-miterlimit:5;"/>
                </g>
                <g transform="matrix(1,0,0,1,-3911.95,199.37)">
                    <path d="M6699.71,3389.01C6699.71,3389.01 6716.31,3367.43 6753.98,3367.98C6798.03,3368.63 6798.76,3386.3 6798.76,3386.3" style="fill:none;stroke:black;stroke-width:6.49px;stroke-linejoin:miter;stroke-miterlimit:5;"/>
                </g>
                <g transform="matrix(1,0,0,1,-3759.15,-400.733)">
                    <path d="M6699.71,3389.01C6699.71,3389.01 6716.31,3367.43 6753.98,3367.98C6798.03,3368.63 6798.76,3386.3 6798.76,3386.3" style="fill:none;stroke:black;stroke-width:6.49px;stroke-linejoin:miter;stroke-miterlimit:5;"/>
                </g>
                <g transform="matrix(1,0,0,1,-3858.65,-504.916)">
                    <path d="M6699.71,3389.01C6699.71,3389.01 6716.31,3367.43 6753.98,3367.98C6798.03,3368.63 6798.76,3386.3 6798.76,3386.3" style="fill:none;stroke:black;stroke-width:6.49px;stroke-linejoin:miter;stroke-miterlimit:5;"/>
                </g>
                <g transform="matrix(1,0,0,1,-3703.65,-669.267)">
                    <path d="M6699.71,3389.01C6699.71,3389.01 6716.31,3367.43 6753.98,3367.98C6798.03,3368.63 6798.76,3386.3 6798.76,3386.3" style="fill:none;stroke:black;stroke-width:6.49px;stroke-linejoin:miter;stroke-miterlimit:5;"/>
                </g>
                <g transform="matrix(1,0,0,1,-3703.65,-669.267)">
                    <path d="M6699.71,3389.01C6699.71,3389.01 6716.31,3367.43 6753.98,3367.98C6798.03,3368.63 6798.76,3386.3 6798.76,3386.3" style="fill:none;stroke:black;stroke-width:6.49px;stroke-linejoin:miter;stroke-miterlimit:5;"/>
                </g>
                <g transform="matrix(1,0,0,1,-3379.57,-327.091)">
                    <path d="M6699.71,3389.01C6699.71,3389.01 6716.31,3367.43 6753.98,3367.98C6798.03,3368.63 6798.76,3386.3 6798.76,3386.3" style="fill:none;stroke:black;stroke-width:6.49px;stroke-linejoin:miter;stroke-miterlimit:5;"/>
                </g>
                <g transform="matrix(1,0,0,1,-3617.15,-17.8399)">
                    <path d="M6699.71,3389.01C6699.71,3389.01 6716.31,3367.43 6753.98,3367.98C6798.03,3368.63 6798.76,3386.3 6798.76,3386.3" style="fill:none;stroke:black;stroke-width:6.49px;stroke-linejoin:miter;stroke-miterlimit:5;"/>
                </g>
                <g transform="matrix(1,0,0,1,-3353.06,-169.03)">
                    <path d="M6699.71,3389.01C6699.71,3389.01 6716.31,3367.43 6753.98,3367.98C6798.03,3368.63 6798.76,3386.3 6798.76,3386.3" style="fill:none;stroke:black;stroke-width:6.49px;stroke-linejoin:miter;stroke-miterlimit:5;"/>
                </g>
                <g transform="matrix(1,0,0,1,-3297.31,-308.995)">
                    <path d="M6699.71,3389.01C6699.71,3389.01 6716.31,3367.43 6753.98,3367.98C6798.03,3368.63 6798.76,3386.3 6798.76,3386.3" style="fill:none;stroke:black;stroke-width:6.49px;stroke-linejoin:miter;stroke-miterlimit:5;"/>
                </g>
                <g transform="matrix(1,0,0,1,-3172.29,-325.446)">
                    <path d="M6699.71,3389.01C6699.71,3389.01 6716.31,3367.43 6753.98,3367.98C6798.03,3368.63 6798.76,3386.3 6798.76,3386.3" style="fill:none;stroke:black;stroke-width:6.49px;stroke-linejoin:miter;stroke-miterlimit:5;"/>
                </g>
                <g transform="matrix(1,0,0,1,-3058.78,-289.255)">
                    <path d="M6699.71,3389.01C6699.71,3389.01 6716.31,3367.43 6753.98,3367.98C6798.03,3368.63 6798.76,3386.3 6798.76,3386.3" style="fill:none;stroke:black;stroke-width:6.49px;stroke-linejoin:miter;stroke-miterlimit:5;"/>
                </g>
                <g transform="matrix(1,0,0,1,-3352.79,-168.104)">
                    <path d="M6699.71,3389.01C6699.71,3389.01 6716.31,3367.43 6753.98,3367.98C6798.03,3368.63 6798.76,3386.3 6798.76,3386.3" style="fill:none;stroke:black;stroke-width:6.49px;stroke-linejoin:miter;stroke-miterlimit:5;"/>
                </g>
                <g transform="matrix(1,0,0,1,-2894.31,-748.319)">
                    <path d="M6699.71,3389.01C6699.71,3389.01 6716.31,3367.43 6753.98,3367.98C6798.03,3368.63 6798.76,3386.3 6798.76,3386.3" style="fill:none;stroke:black;stroke-width:6.49px;stroke-linejoin:miter;stroke-miterlimit:5;"/>
                </g>
                <g transform="matrix(1,0,0,1,-2873.69,-799.37)">
                    <path d="M6699.71,3389.01C6699.71,3389.01 6716.31,3367.43 6753.98,3367.98C6798.03,3368.63 6798.76,3386.3 6798.76,3386.3" style="fill:none;stroke:black;stroke-width:6.49px;stroke-linejoin:miter;stroke-miterlimit:5;"/>
                </g>
                <g transform="matrix(1,0,0,1,-3837.77,19.4098)">
                    <path d="M6699.71,3389.01C6699.71,3389.01 6716.31,3367.43 6753.98,3367.98C6798.03,3368.63 6798.76,3386.3 6798.76,3386.3" style="fill:none;stroke:black;stroke-width:6.49px;stroke-linejoin:miter;stroke-miterlimit:5;"/>
                </g>
                <g transform="matrix(0.97547,-0.220132,0.220132,0.97547,-3750.12,1365.51)">
                    <path d="M6699.71,3389.01C6699.71,3389.01 6716.31,3367.43 6753.98,3367.98C6798.03,3368.63 6798.76,3386.3 6798.76,3386.3" style="fill:none;stroke:black;stroke-width:6.49px;stroke-linejoin:miter;stroke-miterlimit:5;"/>
                </g>
                <g transform="matrix(1,0,0,1,-3267.76,-477.458)">
                    <path d="M6699.71,3389.01C6699.71,3389.01 6716.31,3367.43 6753.98,3367.98C6798.03,3368.63 6798.76,3386.3 6798.76,3386.3" style="fill:none;stroke:black;stroke-width:6.49px;stroke-linejoin:miter;stroke-miterlimit:5;"/>
                </g>
                <g transform="matrix(1,0,0,1,-3165.2,-441.602)">
                    <path d="M6699.71,3389.01C6699.71,3389.01 6716.31,3367.43 6753.98,3367.98C6798.03,3368.63 6798.76,3386.3 6798.76,3386.3" style="fill:none;stroke:black;stroke-width:6.49px;stroke-linejoin:miter;stroke-miterlimit:5;"/>
                </g>
                <g transform="matrix(1,0,0,1,-3036.42,-388.78)">
                    <path d="M6699.71,3389.01C6699.71,3389.01 6716.31,3367.43 6753.98,3367.98C6798.03,3368.63 6798.76,3386.3 6798.76,3386.3" style="fill:none;stroke:black;stroke-width:6.49px;stroke-linejoin:miter;stroke-miterlimit:5;"/>
                </g>
                <g transform="matrix(1,0,0,1,-2967.02,-459.337)">
                    <path d="M6699.71,3389.01C6699.71,3389.01 6716.31,3367.43 6753.98,3367.98C6798.03,3368.63 6798.76,3386.3 6798.76,3386.3" style="fill:none;stroke:black;stroke-width:6.49px;stroke-linejoin:miter;stroke-miterlimit:5;"/>
                </g>
                <g transform="matrix(1,0,0,0.798428,-3099.65,172.898)">
                    <path d="M6699.71,3389.01C6699.71,3389.01 6716.31,3367.43 6753.98,3367.98C6798.03,3368.63 6798.76,3386.3 6798.76,3386.3" style="fill:none;stroke:black;stroke-width:7.18px;stroke-linejoin:miter;stroke-miterlimit:5;"/>
                </g>
                <g transform="matrix(1,0,0,1,-3192.57,-572.305)">
                    <path d="M6699.71,3389.01C6699.71,3389.01 6716.31,3367.43 6753.98,3367.98C6798.03,3368.63 6798.76,3386.3 6798.76,3386.3" style="fill:none;stroke:black;stroke-width:6.49px;stroke-linejoin:miter;stroke-miterlimit:5;"/>
                </g>
                <g transform="matrix(1,0,0,1,-3032.18,-576.547)">
                    <path d="M6699.71,3389.01C6699.71,3389.01 6716.31,3367.43 6753.98,3367.98C6798.03,3368.63 6798.76,3386.3 6798.76,3386.3" style="fill:none;stroke:black;stroke-width:6.49px;stroke-linejoin:miter;stroke-miterlimit:5;"/>
                </g>
                <g transform="matrix(1,0,0,1,-2893.58,-356.779)">
                    <path d="M6699.71,3389.01C6699.71,3389.01 6716.31,3367.43 6753.98,3367.98C6798.03,3368.63 6798.76,3386.3 6798.76,3386.3" style="fill:none;stroke:black;stroke-width:6.49px;stroke-linejoin:miter;stroke-miterlimit:5;"/>
                </g>
                <g transform="matrix(1,0,0,1,-2864.27,-409.986)">
                    <path d="M6699.71,3389.01C6699.71,3389.01 6716.31,3367.43 6753.98,3367.98C6798.03,3368.63 6798.76,3386.3 6798.76,3386.3" style="fill:none;stroke:black;stroke-width:6.49px;stroke-linejoin:miter;stroke-miterlimit:5;"/>
                </g>
                <g transform="matrix(1,0,0,1,-2896.66,-538.762)">
                    <path d="M6699.71,3389.01C6699.71,3389.01 6716.31,3367.43 6753.98,3367.98C6798.03,3368.63 6798.76,3386.3 6798.76,3386.3" style="fill:none;stroke:black;stroke-width:6.49px;stroke-linejoin:miter;stroke-miterlimit:5;"/>
                </g>
                <g transform="matrix(1,0,0,1,-2862.35,-623.97)">
                    <path d="M6699.71,3389.01C6699.71,3389.01 6716.31,3367.43 6753.98,3367.98C6798.03,3368.63 6798.76,3386.3 6798.76,3386.3" style="fill:none;stroke:black;stroke-width:6.49px;stroke-linejoin:miter;stroke-miterlimit:5;"/>
                </g>
                <g transform="matrix(1,0,0,1,-3664.17,-508.049)">
                    <path d="M6699.71,3389.01C6699.71,3389.01 6716.31,3367.43 6753.98,3367.98C6798.03,3368.63 6798.76,3386.3 6798.76,3386.3" style="fill:none;stroke:black;stroke-width:6.49px;stroke-linejoin:miter;stroke-miterlimit:5;"/>
                </g>
                <g transform="matrix(1,0,0,1,-4226,-1484)">
                    <path d="M38.202,55.077C49.949,58.883 100.989,113.001 186.822,149.087C258.542,179.24 355.05,185.876 468.511,243.775C600.636,311.2 720.799,452.59 903.263,532.055C1120.77,626.781 1338.35,619.819 1558.37,729.915C1564.26,732.866 1424.95,622.305 1723.89,794.833C2099.09,1011.38 1957.86,1119.24 2237.36,1254.88C2330.41,1300.04 2473.22,1391.63 2631.98,1450.7C2851.19,1532.26 3082.89,1577.18 3094.56,1580.82C3175.76,1606.16 3256.16,1631.52 3332.31,1656.96C3380.66,1673.11 3427.28,1689.3 3471.31,1705.54C3634.45,1765.72 3822.78,1840.8 3976.84,1921.47C4188.87,2032.51 4555.52,2277.98 4759.61,2407.15C4963.7,2536.32 5183.04,2657.99 5387.38,2792.08C5530.79,2886.2 5896.31,3202.84 5896.31,3202.84C5896.31,3202.84 6143.93,3403.53 6232.15,3533.52C6361.32,3723.83 6567.57,4134.38 6671.33,4344.71C6743.11,4490.2 6810.34,4683.97 6854.76,4795.51C6883.58,4867.9 6898.14,4946.96 6937.86,5013.99C6994.36,5109.35 7134.41,5290.59 7193.77,5367.64C7223.84,5406.68 7260.59,5440.09 7294.01,5476.31C7334.18,5519.86 7432.61,5626.57 7512.39,5713.05C7524.96,5726.67 7614.12,5860.21 7841.82,6062.64C7937.24,6147.47 8135.21,6255.19 8236.55,6353.95C8375.54,6489.4 8385.44,6646.27 8562.98,6775.02C8779.75,6932.21 9168.26,6813.86 9372.44,7003.98C9617.3,7231.97 9678.28,7574.76 9854.09,7809.36C10181.5,8246.25 10527.6,8525.94 10527.6,8525.94" style="fill:none;stroke:rgb(0,17,255);stroke-width:6.49px;"/>
                </g>
                <g transform="matrix(10,0,0,10,-5052.99,-684.758)">
                    <text x="534.778px" y="397.366px" style="font-family:'ArialMT', 'Arial', sans-serif;font-size:12.5px;">Duke&apos;s</text>
                    <g transform="matrix(12.5,0,0,12.5,563.025,410.275)">
                    </g>
                    <text x="534.778px" y="410.275px" style="font-family:'ArialMT', 'Arial', sans-serif;font-size:12.5px;">W<tspan x="546.35px 553.302px " y="410.275px 410.275px ">es</tspan>t</text>
                </g>
                <g transform="matrix(10,0,0,10,-6019.13,-1162.52)">
                    <text x="547.826px" y="397.366px" style="font-family:'LucidaBlackletter', 'Lucida Blackletter', cursive;font-size:15px;">Barony</text>
                    <text x="565.712px" y="412.366px" style="font-family:'LucidaBlackletter', 'Lucida Blackletter', cursive;font-size:15px;">of</text>
                    <g transform="matrix(15,0,0,15,608.829,427.366)">
                    </g>
                    <text x="535.06px" y="427.366px" style="font-family:'LucidaBlackletter', 'Lucida Blackletter', cursive;font-size:15px;">Simoondale</text>
                </g>
                <g transform="matrix(10,0,0,10,-2724.65,-2451.32)">
                    <text x="547.826px" y="397.366px" style="font-family:'LucidaBlackletter', 'Lucida Blackletter', cursive;font-size:15px;">Barony</text>
                    <text x="565.712px" y="412.366px" style="font-family:'LucidaBlackletter', 'Lucida Blackletter', cursive;font-size:15px;">of</text>
                    <g transform="matrix(15,0,0,15,609.111,427.366)">
                    </g>
                    <text x="534.778px" y="427.366px" style="font-family:'LucidaBlackletter', 'Lucida Blackletter', cursive;font-size:15px;">Woodhaven</text>
                </g>
                <g transform="matrix(10,0,0,10,-3153.53,-685.606)">
                    <text x="534.778px" y="397.366px" style="font-family:'ArialMT', 'Arial', sans-serif;font-size:11.667px;">Duke&apos;s</text>
                    <g transform="matrix(11.6667,0,0,11.6667,558.123,409.414)">
                    </g>
                    <text x="534.778px" y="409.414px" style="font-family:'ArialMT', 'Arial', sans-serif;font-size:11.667px;">East</text>
                </g>
                <g transform="matrix(1,0,0,1,-2422.16,-1593.12)">
                    <path d="M5144.93,5004.21L5100.75,4905.3L5026.14,4712.88L4923.05,4468.91L4804.26,4189.11L4645.22,3896.55C4645.22,3896.55 4573.24,3755.27 4523.48,3694.31C4446.74,3600.31 4261.8,3418.68 4184.78,3332.54C4140.74,3283.29 4078.5,3189.12 4061.32,3177.48C4035.88,3160.24 3953.83,3145 3945.76,3124.07C3932.86,3090.6 4024.3,3067.45 4155.9,2984.15C4258.05,2919.5 4376.2,2867.49 4436.56,2841.53C4547.86,2793.65 4685.61,2794.02 4792.69,2768.78C4889.05,2746.07 4994.95,2742.29 5079.06,2690.08C5122.52,2663.1 5216.27,2632.82 5290.3,2572.55C5354.23,2520.49 5408.97,2443.13 5460.36,2389.96C5476.81,2372.94 5669.51,2134.68 5745.56,2224.17C5792.13,2278.98 5841.31,2471.02 5890.5,2641.81C5927.19,2769.19 6029.73,3013.39 6098.29,3127.88C6197.07,3292.83 6345.22,3475.61 6372.98,3668.5C6388.08,3773.42 6452.41,3836.68 6472.13,3927.7C6497.84,4046.35 6479.28,4200.86 6473.36,4307.73C6464.45,4468.51 6514.39,4542.03 6480.52,4646.58C6442.59,4763.67 6242.81,5033.04 6242.81,5033.04" style="fill:none;stroke:black;stroke-width:11.32px;stroke-linejoin:miter;stroke-miterlimit:5;stroke-dasharray:33.97,33.97,0,0;"/>
                </g>
                <path d="M-67.712,3534.41C-53.919,3554.41 -27.675,3625.79 -3.877,3702.72C22.518,3788.06 45.903,3880.24 45.952,3916.73C46.025,3970.85 58.093,4025.43 77.311,4076.03C97.798,4129.96 137.473,4203.19 168.877,4240.34C278.647,4370.22 200.595,4638.18 169.667,4651.18" style="fill:none;stroke:black;stroke-width:7.48px;stroke-linejoin:miter;stroke-miterlimit:5;stroke-dasharray:22.44,22.44,0,0;"/>
                <path d="M4442.31,2812.42C4191.08,2859.79 3995.43,3050.3 3832.03,3323.85L3690.74,3533.41C3690.74,3533.41 3621.21,3663.58 3611.05,3682.19C3595.79,3710.15 3503.78,3920.22 3503.78,3920.22L3356.19,4038.73L3236.53,4087.19L3203.34,4097.62L3176.24,4112.42" style="fill:none;stroke:rgb(0,32,255);stroke-width:7.15px;stroke-linejoin:miter;stroke-miterlimit:5;"/>
                <path d="M3619.23,4513.72C3619.23,4513.72 3610.77,4157.28 3610.14,4103.07C3609.62,4058.5 3618.75,4012.68 3608.24,3969.37C3595.12,3915.32 3564.58,3838.71 3531.43,3778.77C3493.5,3710.18 3416.06,3622.62 3380.66,3557.83C3352.09,3505.53 3343.71,3474.34 3343.71,3474.34" style="fill:none;"/>
                <path d="M2520.85,3760.04C2497.25,3773.81 2462.84,3780.32 2450.04,3801.34C2437.24,3822.36 2450.02,3858.45 2444.04,3886.16C2437.83,3914.99 2423.18,3962.97 2412.75,3974.34C2402.32,3985.72 2346.85,4047.52 2320.77,4077.7C2298.76,4103.18 2202.52,4174.7 2181.03,4200.61" style="fill:none;stroke:black;stroke-width:7.15px;stroke-linejoin:miter;stroke-miterlimit:5;stroke-dasharray:21.46,21.46,0,0;"/>
                <g transform="matrix(0.997637,0,0,0.997637,9.34099,1.08781)">
                    <path d="M3953.32,460.384C3953.32,460.384 3757.98,536.244 3744.7,542.881C3731.43,549.519 3505.74,632.016 3478.24,640.551C3454.5,647.919 3392.58,677.909 3376.11,685.964C3373.51,687.238 3372.04,687.963 3372.04,687.963L3342.63,694.89" style="fill:none;stroke:rgb(0,8,255);stroke-width:7.17px;stroke-linejoin:miter;stroke-miterlimit:5;"/>
                    <g transform="matrix(1,0,0,1,-4231.29,-1474.74)">
                        <path d="M6042.25,3323.63C6196.46,3223.83 6357.92,3148.41 6508.83,3038.94C6606.11,2968.38 6691.48,2876.62 6788.8,2800.07C6909.75,2704.93 7030.96,2591.45 7154.09,2496.52C7215.36,2449.29 7242.03,2367.47 7299.23,2318.89C7342.71,2281.96 7399.72,2230.83 7454.92,2205.06C7497.6,2185.14 7533.87,2193.47 7574.95,2169.23" style="fill:none;stroke:rgb(16,0,255);stroke-width:7.5px;"/>
                    </g>
                </g>
                <path d="M3347.04,699.678C3347.04,699.678 3347.63,826.123 3358.54,888.09C3372.36,966.485 3405.95,1086.78 3429.9,1170.05C3451.03,1243.53 3502.24,1387.73 3502.24,1387.73C3502.24,1387.73 3541.16,1487.09 3568.33,1532.73C3603.89,1592.47 3680.14,1692.04 3715.59,1746.13C3739.15,1782.09 3759.28,1820.18 3781.02,1857.27C3807.77,1902.89 3866.9,2013.43 3891.83,2070.18C3909.72,2110.88 3907.15,2166.02 3930.63,2197.76C4018.35,2316.3 3962.9,2554.17 3827.33,2595.58" style="fill:none;stroke:rgb(22,0,255);stroke-width:7.48px;stroke-linejoin:miter;stroke-miterlimit:5;"/>
                <g transform="matrix(10,0,0,10,-2364.66,-178.186)">
                    <g transform="matrix(10,0,0,10,570.369,397.366)">
                    </g>
                    <text x="534.778px" y="397.366px" style="font-family:'ArialMT', 'Arial', sans-serif;font-size:10px;">Lungold</text>
                </g>
                <g transform="matrix(10,0,0,10,-1738.72,-1022.9)">
                    <g transform="matrix(10,0,0,10,570.354,397.366)">
                    </g>
                    <text x="534.778px" y="397.366px" style="font-family:'ArialMT', 'Arial', sans-serif;font-size:10px;">Sundarr</text>
                </g>
                <g transform="matrix(10,0,0,10,-6299.17,-308.739)">
                    <g transform="matrix(10,0,0,10,590.354,397.366)">
                    </g>
                    <text x="534.778px" y="397.366px" style="font-family:'ArialMT', 'Arial', sans-serif;font-size:10px;">(Jant Plains)</text>
                </g>
                <g transform="matrix(6.99249,7.14878,-7.14878,6.99249,1775.03,-2853.5)">
                    <g transform="matrix(10,0,0,10,593.689,397.366)">
                    </g>
                    <text x="534.778px" y="397.366px" style="font-family:'ArialMT', 'Arial', sans-serif;font-size:10px;">Hadran River</text>
                </g>
                <g transform="matrix(1,0,0,1,-1157.05,218.254)">
                    <path d="M1021.72,3356.74L1147.2,3358.67L1147.5,3313.06L1165.79,3313.06L1133.35,3282.7L1041.91,3281.81L1007.24,3313.06L1021.96,3313.06L1021.72,3356.74Z" style="fill:rgb(10,10,10);"/>
                </g>
                <g transform="matrix(1,0,0,1,-3019.97,-676.651)">
                    <path d="M6699.71,3389.01C6699.71,3389.01 6716.31,3367.43 6753.98,3367.98C6798.03,3368.63 6798.76,3386.3 6798.76,3386.3" style="fill:none;stroke:black;stroke-width:6.49px;stroke-linejoin:miter;stroke-miterlimit:5;"/>
                </g>
                <g transform="matrix(1,0,0,1,-3042.55,-778.753)">
                    <path d="M6699.71,3389.01C6699.71,3389.01 6716.31,3367.43 6753.98,3367.98C6798.03,3368.63 6798.76,3386.3 6798.76,3386.3" style="fill:none;stroke:black;stroke-width:6.49px;stroke-linejoin:miter;stroke-miterlimit:5;"/>
                </g>
                <g transform="matrix(1,0,0,1,-2983.65,-848.458)">
                    <path d="M6699.71,3389.01C6699.71,3389.01 6716.31,3367.43 6753.98,3367.98C6798.03,3368.63 6798.76,3386.3 6798.76,3386.3" style="fill:none;stroke:black;stroke-width:6.49px;stroke-linejoin:miter;stroke-miterlimit:5;"/>
                </g>
                <g transform="matrix(1,0,0,1,-2910.02,-937.797)">
                    <path d="M6699.71,3389.01C6699.71,3389.01 6716.31,3367.43 6753.98,3367.98C6798.03,3368.63 6798.76,3386.3 6798.76,3386.3" style="fill:none;stroke:black;stroke-width:6.49px;stroke-linejoin:miter;stroke-miterlimit:5;"/>
                </g>
                <g transform="matrix(1,0,0,1,-2881.55,-1025.17)">
                    <path d="M6699.71,3389.01C6699.71,3389.01 6716.31,3367.43 6753.98,3367.98C6798.03,3368.63 6798.76,3386.3 6798.76,3386.3" style="fill:none;stroke:black;stroke-width:6.49px;stroke-linejoin:miter;stroke-miterlimit:5;"/>
                </g>
                <g transform="matrix(1,0,0,1,-1335.05,-1578.66)">
                    <path d="M1021.72,3356.74L1147.2,3358.67L1147.5,3313.06L1165.79,3313.06L1133.35,3282.7L1041.91,3281.81L1007.24,3313.06L1021.96,3313.06L1021.72,3356.74Z" style="fill:rgb(10,10,10);"/>
                </g>
                <g transform="matrix(10,0,0,10,-5720.5,-621.22)">
                    <g transform="matrix(10,0,0,10,575.354,397.366)">
                    </g>
                    <text x="534.778px" y="397.366px" style="font-family:'ArialMT', 'Arial', sans-serif;font-size:10px;">MidJanut</text>
                </g>
                <g transform="matrix(10,0,0,10,-1742.21,-157.184)">
                    <text x="547.826px" y="397.366px" style="font-family:'LucidaBlackletter', 'Lucida Blackletter', cursive;font-size:15px;">Barony</text>
                    <text x="565.712px" y="412.366px" style="font-family:'LucidaBlackletter', 'Lucida Blackletter', cursive;font-size:15px;">of</text>
                    <g transform="matrix(15,0,0,15,599.26,427.366)">
                    </g>
                    <text x="544.629px" y="427.366px" style="font-family:'LucidaBlackletter', 'Lucida Blackletter', cursive;font-size:15px;">Meddlar</text>
                </g>
                <g transform="matrix(1,0,0,1,-4226,-1484)">
                    <path d="M3544.09,5464.99C3554.03,5443.52 3573.92,5400.58 3602.75,5383.68C3637.78,5363.13 3686.48,5329.48 3747.01,5307.94C3765.33,5301.42 3801.96,5312.29 3817.87,5304.42C3854.9,5286.1 3916.26,5265.83 3965.5,5237.05C4026.9,5201.17 4053.9,5169.99 4072.44,5142.45C4086.46,5121.61 4094.24,5107.28 4106.07,5090.33C4120.33,5069.9 4145.44,5036.55 4157.99,5019.87" style="fill:none;stroke:black;stroke-width:7.33px;stroke-dasharray:22,22,0,0;"/>
                </g>
                <g transform="matrix(1,0,0,1,-4226,-1484)">
                    <path d="M2857.16,4844.25C3073.54,5039.56 3506.29,5430.19 3662.47,5566.25C3703.19,5601.73 3751.63,5627.35 3794.21,5660.58C3845.42,5700.55 3905.67,5766.42 3969.7,5806.03C4033.73,5845.64 4119.54,5863.39 4178.39,5898.26C4231.68,5929.83 4291.25,5982.92 4322.78,6015.25C4343.51,6036.49 4359.56,6073.62 4367.58,6092.19" style="fill:none;stroke:black;stroke-width:7.34px;stroke-linecap:square;stroke-dasharray:22.01,22.01,0,0;"/>
                </g>
                <path d="M1021.72,3356.74L1147.2,3358.67L1147.5,3313.06L1165.79,3313.06L1133.35,3282.7L1041.91,3281.81L1007.24,3313.06L1021.96,3313.06L1021.72,3356.74Z" style="fill:rgb(10,10,10);"/>
                <g transform="matrix(1,0,0,1,2622.71,-1722.8)">
                    <path d="M1021.72,3356.74L1147.2,3358.67L1147.5,3313.06L1165.79,3313.06L1133.35,3282.7L1041.91,3281.81L1007.24,3313.06L1021.96,3313.06L1021.72,3356.74Z" style="fill:rgb(10,10,10);"/>
                </g>
                <g transform="matrix(1,0,0,1,2159.97,-2707.79)">
                    <path d="M1021.72,3356.74L1147.2,3358.67L1147.5,3313.06L1165.79,3313.06L1133.35,3282.7L1041.91,3281.81L1007.24,3313.06L1021.96,3313.06L1021.72,3356.74Z" style="fill:rgb(10,10,10);"/>
                </g>
                <g transform="matrix(1,0,0,1,2405.57,366.023)">
                    <path d="M1021.72,3356.74L1147.2,3358.67L1147.5,3313.06L1165.79,3313.06L1133.35,3282.7L1041.91,3281.81L1007.24,3313.06L1021.96,3313.06L1021.72,3356.74Z" style="fill:rgb(10,10,10);"/>
                </g>
                <path d="M1450.03,3907.12L1505.03,3982.04L1539.17,4072.12C1539.17,4072.12 1615.2,4172.85 1599.86,4174.53C1594.33,4175.14 1622.47,4207.4 1622.03,4285.24C1621.81,4322.74 1593.97,4376.99 1592.32,4431.67C1587.13,4604.26 1571.44,4857.14 1585.51,4861.47" style="fill:none;stroke:black;stroke-width:7.15px;stroke-linejoin:miter;stroke-miterlimit:5;stroke-dasharray:21.46,21.46,0,0;"/>
                <g transform="matrix(1,0,0,1,-53.0722,88.4535)">
                    <path d="M995.833,3761.8C981.587,3848.36 984.869,3932.79 969.997,3996.65C960.019,4039.49 907.172,4117.93 899.041,4147.66C894.211,4165.32 909.136,4246.14 911.2,4264.11C916.058,4306.4 898.982,4435.04 910.244,4448.92C983.681,4539.44 1015.08,4638.44 1131.73,4797.55C1289.88,5013.23 1349.3,5209.43 1349.3,5209.43" style="fill:none;stroke:black;stroke-width:7.15px;stroke-linejoin:miter;stroke-miterlimit:5;stroke-dasharray:21.46,21.46,0,0;"/>
                </g>
                <path d="M2709.02,3529.9C2695.75,3535.59 2657.26,3539.16 2641.03,3557.46C2617.05,3584.49 2584.77,3656.08 2565.17,3692.11C2550.58,3718.93 2527.63,3743.41 2523.45,3773.66C2517.91,3813.64 2528.19,3911.16 2531.98,3932.02C2535.77,3952.88 2573.24,4049.78 2582.72,4072.54C2592.21,4095.3 2670.43,4339.93 2670.43,4339.93" style="fill:none;stroke:rgb(22,0,255);stroke-width:7.15px;stroke-linejoin:miter;stroke-miterlimit:5;"/>
                <path d="M952.634,3833.68L952.634,3699.59L996.015,3699.59L996.015,3715.01L1054.1,3715.01L1054.1,3700.31L1103.21,3700.31L1103.21,3829.73L952.634,3829.73" style="stroke:black;stroke-width:7.15px;stroke-linejoin:miter;stroke-miterlimit:5;"/>
                <g transform="matrix(1,0,0,1,-67.3254,-935.758)">
                    <path d="M1021.72,3356.74L1147.2,3358.67L1147.5,3313.06L1165.79,3313.06L1133.35,3282.7L1041.91,3281.81L1007.24,3313.06L1021.96,3313.06L1021.72,3356.74Z" style="fill:rgb(10,10,10);"/>
                </g>
                <g transform="matrix(7.51869,-6.59313,6.59313,7.51869,-6753.77,2541.51)">
                    <g transform="matrix(10.8333,0,0,10.8333,612.722,397.366)">
                    </g>
                    <text x="534.778px" y="397.366px" style="font-family:'LucidaBlackletter', 'Lucida Blackletter', cursive;font-size:10.833px;">Northumberland</text>
                </g>
            </g>
            <g id="swamps">
            </g>
        </g>
    </g>
</svg>
